<mxfile host="app.diagrams.net" modified="2021-11-01T16:02:38.924Z" agent="5.0 (X11)" etag="ymbpiFuYyoHVb3z_ArPN" version="15.6.3" type="github">
  <diagram id="kgpKYQtTHZ0yAKxKKP6v" name="Page-1">
    <mxGraphModel dx="1422" dy="724" grid="1" gridSize="10" guides="1" tooltips="1" connect="1" arrows="1" fold="1" page="1" pageScale="1" pageWidth="850" pageHeight="1100" math="0" shadow="0">
      <root>
        <mxCell id="0" />
        <mxCell id="1" parent="0" />
        <mxCell id="3nuBFxr9cyL0pnOWT2aG-1" value="Client" style="shape=umlLifeline;perimeter=lifelinePerimeter;container=1;collapsible=0;recursiveResize=0;rounded=0;shadow=0;strokeWidth=1;" parent="1" vertex="1">
          <mxGeometry x="120" y="80" width="100" height="760" as="geometry" />
        </mxCell>
        <mxCell id="3nuBFxr9cyL0pnOWT2aG-5" value="API endpoint" style="shape=umlLifeline;perimeter=lifelinePerimeter;container=1;collapsible=0;recursiveResize=0;rounded=0;shadow=0;strokeWidth=1;" parent="1" vertex="1">
          <mxGeometry x="300" y="80" width="100" height="760" as="geometry" />
        </mxCell>
        <mxCell id="3nuBFxr9cyL0pnOWT2aG-8" value="POST(code,user,group)" style="verticalAlign=bottom;endArrow=block;entryX=0.47;entryY=0.088;shadow=0;strokeWidth=1;entryDx=0;entryDy=0;entryPerimeter=0;" parent="1" source="3nuBFxr9cyL0pnOWT2aG-1" target="3nuBFxr9cyL0pnOWT2aG-5" edge="1">
          <mxGeometry relative="1" as="geometry">
            <mxPoint x="175" y="160.0000000000001" as="sourcePoint" />
            <mxPoint x="345" y="160.0000000000001" as="targetPoint" />
          </mxGeometry>
        </mxCell>
        <mxCell id="3nuBFxr9cyL0pnOWT2aG-9" value="Transaction(id,status,results)" style="verticalAlign=bottom;endArrow=block;shadow=0;strokeWidth=1;entryX=0.5;entryY=0.145;entryDx=0;entryDy=0;entryPerimeter=0;" parent="1" edge="1">
          <mxGeometry relative="1" as="geometry">
            <mxPoint x="349.5" y="203.20000000000005" as="sourcePoint" />
            <mxPoint x="170" y="203.20000000000005" as="targetPoint" />
          </mxGeometry>
        </mxCell>
        <mxCell id="3Bwb_A_XAJUhcDOnylW9-1" value="PENDING" style="text;html=1;align=center;verticalAlign=middle;resizable=0;points=[];autosize=1;strokeColor=none;fillColor=none;fontSize=10;" vertex="1" parent="1">
          <mxGeometry x="230" y="201" width="60" height="20" as="geometry" />
        </mxCell>
        <mxCell id="3Bwb_A_XAJUhcDOnylW9-2" value="Redis&#xa;(transaction repo)&#xa;" style="shape=umlLifeline;perimeter=lifelinePerimeter;container=1;collapsible=0;recursiveResize=0;rounded=0;shadow=0;strokeWidth=1;" vertex="1" parent="1">
          <mxGeometry x="480" y="80" width="100" height="760" as="geometry" />
        </mxCell>
        <mxCell id="3Bwb_A_XAJUhcDOnylW9-3" value="save(id,status,results)" style="verticalAlign=bottom;endArrow=block;entryX=0.47;entryY=0.088;shadow=0;strokeWidth=1;entryDx=0;entryDy=0;entryPerimeter=0;" edge="1" parent="1">
          <mxGeometry relative="1" as="geometry">
            <mxPoint x="350" y="156.88" as="sourcePoint" />
            <mxPoint x="527.5" y="156.88" as="targetPoint" />
          </mxGeometry>
        </mxCell>
        <mxCell id="3Bwb_A_XAJUhcDOnylW9-4" value="&lt;div&gt;Polling Transactions&lt;/div&gt;&lt;div&gt;until status is&lt;/div&gt;ERROR or FINISHED" style="shape=umlFrame;whiteSpace=wrap;html=1;width=90;height=80;" vertex="1" parent="1">
          <mxGeometry x="50" y="220" width="560" height="130" as="geometry" />
        </mxCell>
        <mxCell id="3Bwb_A_XAJUhcDOnylW9-5" value="GET(transactionid)" style="verticalAlign=bottom;endArrow=block;entryX=0.47;entryY=0.088;shadow=0;strokeWidth=1;entryDx=0;entryDy=0;entryPerimeter=0;" edge="1" parent="1">
          <mxGeometry relative="1" as="geometry">
            <mxPoint x="171.25" y="260" as="sourcePoint" />
            <mxPoint x="348.75" y="260" as="targetPoint" />
          </mxGeometry>
        </mxCell>
        <mxCell id="3Bwb_A_XAJUhcDOnylW9-6" value="Transaction(id,status,results)" style="verticalAlign=bottom;endArrow=block;shadow=0;strokeWidth=1;entryX=0.5;entryY=0.145;entryDx=0;entryDy=0;entryPerimeter=0;" edge="1" parent="1">
          <mxGeometry relative="1" as="geometry">
            <mxPoint x="349.75" y="310.00000000000006" as="sourcePoint" />
            <mxPoint x="170.25" y="310.00000000000006" as="targetPoint" />
          </mxGeometry>
        </mxCell>
        <mxCell id="3Bwb_A_XAJUhcDOnylW9-7" value="findById(id)" style="verticalAlign=bottom;endArrow=block;entryX=0.47;entryY=0.088;shadow=0;strokeWidth=1;entryDx=0;entryDy=0;entryPerimeter=0;" edge="1" parent="1">
          <mxGeometry relative="1" as="geometry">
            <mxPoint x="350" y="270" as="sourcePoint" />
            <mxPoint x="527.5" y="270" as="targetPoint" />
          </mxGeometry>
        </mxCell>
        <mxCell id="3Bwb_A_XAJUhcDOnylW9-8" value="Transaction(id,status,results)" style="verticalAlign=bottom;endArrow=block;shadow=0;strokeWidth=1;entryX=0.5;entryY=0.145;entryDx=0;entryDy=0;entryPerimeter=0;" edge="1" parent="1">
          <mxGeometry relative="1" as="geometry">
            <mxPoint x="529.5" y="300" as="sourcePoint" />
            <mxPoint x="350" y="300" as="targetPoint" />
          </mxGeometry>
        </mxCell>
        <mxCell id="3Bwb_A_XAJUhcDOnylW9-9" value="Kafka" style="shape=umlLifeline;perimeter=lifelinePerimeter;container=1;collapsible=0;recursiveResize=0;rounded=0;shadow=0;strokeWidth=1;" vertex="1" parent="1">
          <mxGeometry x="660" y="80" width="100" height="760" as="geometry" />
        </mxCell>
        <mxCell id="3Bwb_A_XAJUhcDOnylW9-10" value="produce(id,user,group,code)" style="verticalAlign=bottom;endArrow=block;shadow=0;strokeWidth=1;" edge="1" parent="1">
          <mxGeometry relative="1" as="geometry">
            <mxPoint x="350" y="192" as="sourcePoint" />
            <mxPoint x="709.5" y="192" as="targetPoint" />
          </mxGeometry>
        </mxCell>
        <mxCell id="3Bwb_A_XAJUhcDOnylW9-11" value="PENDING" style="text;html=1;align=center;verticalAlign=middle;resizable=0;points=[];autosize=1;strokeColor=none;fillColor=none;fontSize=10;" vertex="1" parent="1">
          <mxGeometry x="405" y="157" width="60" height="20" as="geometry" />
        </mxCell>
      </root>
    </mxGraphModel>
  </diagram>
</mxfile>
